<svg xmlns="http://www.w3.org/2000/svg" width="200" height="65" viewBox="0 0 200 65">
  <g id="dot-shape" transform="translate(-711 -4044)" style="isolation: isolate">
    <circle id="Ellipse_30" data-name="Ellipse 30" cx="2.5" cy="2.5" r="2.5" transform="translate(846 4044)" fill="#0ac962"/>
    <circle id="Ellipse_30-2" data-name="Ellipse 30" cx="2.5" cy="2.5" r="2.5" transform="translate(861 4044)" fill="#0ac962"/>
    <circle id="Ellipse_30-3" data-name="Ellipse 30" cx="2.5" cy="2.5" r="2.5" transform="translate(876 4044)" fill="#0ac962"/>
    <circle id="Ellipse_30-4" data-name="Ellipse 30" cx="2.5" cy="2.5" r="2.5" transform="translate(891 4044)" fill="#0ac962"/>
    <circle id="Ellipse_30-5" data-name="Ellipse 30" cx="2.5" cy="2.5" r="2.5" transform="translate(906 4044)" fill="#0ac962"/>
    <circle id="Ellipse_30-6" data-name="Ellipse 30" cx="2.5" cy="2.5" r="2.5" transform="translate(846 4059)" fill="#0ac962"/>
    <circle id="Ellipse_30-7" data-name="Ellipse 30" cx="2.5" cy="2.5" r="2.5" transform="translate(861 4059)" fill="#0ac962"/>
    <circle id="Ellipse_30-8" data-name="Ellipse 30" cx="2.5" cy="2.5" r="2.5" transform="translate(876 4059)" fill="#0ac962"/>
    <circle id="Ellipse_30-9" data-name="Ellipse 30" cx="2.5" cy="2.5" r="2.5" transform="translate(891 4059)" fill="#0ac962"/>
    <circle id="Ellipse_30-10" data-name="Ellipse 30" cx="2.5" cy="2.5" r="2.5" transform="translate(906 4059)" fill="#0ac962"/>
    <g id="Group_508" data-name="Group 508">
      <circle id="Ellipse_30-11" data-name="Ellipse 30" cx="2.5" cy="2.5" r="2.5" transform="translate(711 4044)" fill="#fcfbfe"/>
      <circle id="Ellipse_30-12" data-name="Ellipse 30" cx="2.5" cy="2.5" r="2.5" transform="translate(726 4044)" fill="#fcfbfe"/>
      <circle id="Ellipse_30-13" data-name="Ellipse 30" cx="2.5" cy="2.5" r="2.5" transform="translate(741 4044)" fill="#fcfbfe"/>
      <circle id="Ellipse_30-14" data-name="Ellipse 30" cx="2.5" cy="2.5" r="2.5" transform="translate(756 4044)" fill="#fcfbfe"/>
      <circle id="Ellipse_30-15" data-name="Ellipse 30" cx="2.5" cy="2.5" r="2.5" transform="translate(771 4044)" fill="#fcfbfe"/>
      <circle id="Ellipse_30-16" data-name="Ellipse 30" cx="2.5" cy="2.5" r="2.5" transform="translate(786 4044)" fill="#fcfbfe"/>
      <circle id="Ellipse_30-17" data-name="Ellipse 30" cx="2.5" cy="2.5" r="2.5" transform="translate(801 4044)" fill="#fcfbfe"/>
      <circle id="Ellipse_30-18" data-name="Ellipse 30" cx="2.5" cy="2.5" r="2.5" transform="translate(816 4044)" fill="#fcfbfe"/>
      <circle id="Ellipse_30-19" data-name="Ellipse 30" cx="2.5" cy="2.5" r="2.5" transform="translate(831 4044)" fill="#fcfbfe"/>
      <circle id="Ellipse_30-20" data-name="Ellipse 30" cx="2.5" cy="2.5" r="2.5" transform="translate(711 4059)" fill="#fcfbfe"/>
      <circle id="Ellipse_30-21" data-name="Ellipse 30" cx="2.5" cy="2.5" r="2.5" transform="translate(726 4059)" fill="#fcfbfe"/>
      <circle id="Ellipse_30-22" data-name="Ellipse 30" cx="2.5" cy="2.5" r="2.5" transform="translate(741 4059)" fill="#fcfbfe"/>
      <circle id="Ellipse_30-23" data-name="Ellipse 30" cx="2.5" cy="2.5" r="2.5" transform="translate(756 4059)" fill="#fcfbfe"/>
      <circle id="Ellipse_30-24" data-name="Ellipse 30" cx="2.5" cy="2.5" r="2.5" transform="translate(771 4059)" fill="#fcfbfe"/>
      <circle id="Ellipse_30-25" data-name="Ellipse 30" cx="2.5" cy="2.5" r="2.5" transform="translate(786 4059)" fill="#fcfbfe"/>
      <circle id="Ellipse_30-26" data-name="Ellipse 30" cx="2.5" cy="2.5" r="2.5" transform="translate(801 4059)" fill="#fcfbfe"/>
      <circle id="Ellipse_30-27" data-name="Ellipse 30" cx="2.5" cy="2.5" r="2.5" transform="translate(816 4059)" fill="#fcfbfe"/>
      <circle id="Ellipse_30-28" data-name="Ellipse 30" cx="2.5" cy="2.5" r="2.5" transform="translate(831 4059)" fill="#fcfbfe"/>
      <circle id="Ellipse_30-29" data-name="Ellipse 30" cx="2.5" cy="2.5" r="2.5" transform="translate(711 4074)" fill="#fcfbfe"/>
      <circle id="Ellipse_30-30" data-name="Ellipse 30" cx="2.5" cy="2.5" r="2.5" transform="translate(726 4074)" fill="#fcfbfe"/>
      <circle id="Ellipse_30-31" data-name="Ellipse 30" cx="2.5" cy="2.5" r="2.5" transform="translate(741 4074)" fill="#fcfbfe"/>
      <circle id="Ellipse_30-32" data-name="Ellipse 30" cx="2.5" cy="2.5" r="2.5" transform="translate(756 4074)" fill="#fcfbfe"/>
      <circle id="Ellipse_30-33" data-name="Ellipse 30" cx="2.5" cy="2.5" r="2.5" transform="translate(771 4074)" fill="#fcfbfe"/>
      <circle id="Ellipse_30-34" data-name="Ellipse 30" cx="2.5" cy="2.5" r="2.5" transform="translate(786 4074)" fill="#fcfbfe"/>
      <circle id="Ellipse_30-35" data-name="Ellipse 30" cx="2.5" cy="2.5" r="2.5" transform="translate(801 4074)" fill="#fcfbfe"/>
      <circle id="Ellipse_30-36" data-name="Ellipse 30" cx="2.5" cy="2.5" r="2.5" transform="translate(816 4074)" fill="#fcfbfe"/>
      <circle id="Ellipse_30-37" data-name="Ellipse 30" cx="2.5" cy="2.5" r="2.5" transform="translate(831 4074)" fill="#fcfbfe"/>
    </g>
    <circle id="Ellipse_30-38" data-name="Ellipse 30" cx="2.5" cy="2.5" r="2.5" transform="translate(846 4074)" fill="#0ac962"/>
    <circle id="Ellipse_30-39" data-name="Ellipse 30" cx="2.5" cy="2.5" r="2.5" transform="translate(861 4074)" fill="#0ac962"/>
    <circle id="Ellipse_30-40" data-name="Ellipse 30" cx="2.5" cy="2.5" r="2.5" transform="translate(876 4074)" fill="#0ac962"/>
    <circle id="Ellipse_30-41" data-name="Ellipse 30" cx="2.5" cy="2.5" r="2.5" transform="translate(891 4074)" fill="#0ac962"/>
    <circle id="Ellipse_30-42" data-name="Ellipse 30" cx="2.5" cy="2.5" r="2.5" transform="translate(906 4074)" fill="#0ac962"/>
    <circle id="Ellipse_30-43" data-name="Ellipse 30" cx="2.5" cy="2.5" r="2.5" transform="translate(711 4089)" fill="#0ac962"/>
    <circle id="Ellipse_30-44" data-name="Ellipse 30" cx="2.5" cy="2.5" r="2.5" transform="translate(726 4089)" fill="#0ac962"/>
    <circle id="Ellipse_30-45" data-name="Ellipse 30" cx="2.5" cy="2.5" r="2.5" transform="translate(741 4089)" fill="#0ac962"/>
    <circle id="Ellipse_30-46" data-name="Ellipse 30" cx="2.5" cy="2.5" r="2.5" transform="translate(756 4089)" fill="#0ac962"/>
    <circle id="Ellipse_30-47" data-name="Ellipse 30" cx="2.5" cy="2.5" r="2.5" transform="translate(771 4089)" fill="#0ac962"/>
    <circle id="Ellipse_30-48" data-name="Ellipse 30" cx="2.5" cy="2.5" r="2.5" transform="translate(786 4089)" fill="#0ac962"/>
    <circle id="Ellipse_30-49" data-name="Ellipse 30" cx="2.5" cy="2.5" r="2.5" transform="translate(801 4089)" fill="#0ac962"/>
    <circle id="Ellipse_30-50" data-name="Ellipse 30" cx="2.5" cy="2.5" r="2.5" transform="translate(816 4089)" fill="#0ac962"/>
    <circle id="Ellipse_30-51" data-name="Ellipse 30" cx="2.5" cy="2.5" r="2.5" transform="translate(831 4089)" fill="#0ac962"/>
    <circle id="Ellipse_30-52" data-name="Ellipse 30" cx="2.5" cy="2.5" r="2.5" transform="translate(846 4089)" fill="#0ac962"/>
    <circle id="Ellipse_30-53" data-name="Ellipse 30" cx="2.5" cy="2.5" r="2.5" transform="translate(861 4089)" fill="#0ac962"/>
    <circle id="Ellipse_30-54" data-name="Ellipse 30" cx="2.5" cy="2.5" r="2.5" transform="translate(876 4089)" fill="#0ac962"/>
    <circle id="Ellipse_30-55" data-name="Ellipse 30" cx="2.5" cy="2.5" r="2.5" transform="translate(891 4089)" fill="#0ac962"/>
    <circle id="Ellipse_30-56" data-name="Ellipse 30" cx="2.5" cy="2.5" r="2.5" transform="translate(906 4089)" fill="#0ac962"/>
    <circle id="Ellipse_30-57" data-name="Ellipse 30" cx="2.5" cy="2.5" r="2.5" transform="translate(711 4104)" fill="#0ac962"/>
    <circle id="Ellipse_30-58" data-name="Ellipse 30" cx="2.5" cy="2.5" r="2.5" transform="translate(726 4104)" fill="#0ac962"/>
    <circle id="Ellipse_30-59" data-name="Ellipse 30" cx="2.5" cy="2.5" r="2.5" transform="translate(741 4104)" fill="#0ac962"/>
    <circle id="Ellipse_30-60" data-name="Ellipse 30" cx="2.5" cy="2.5" r="2.5" transform="translate(756 4104)" fill="#0ac962"/>
    <circle id="Ellipse_30-61" data-name="Ellipse 30" cx="2.5" cy="2.5" r="2.5" transform="translate(771 4104)" fill="#0ac962"/>
    <circle id="Ellipse_30-62" data-name="Ellipse 30" cx="2.5" cy="2.5" r="2.5" transform="translate(786 4104)" fill="#0ac962"/>
    <circle id="Ellipse_30-63" data-name="Ellipse 30" cx="2.5" cy="2.5" r="2.5" transform="translate(801 4104)" fill="#0ac962"/>
    <circle id="Ellipse_30-64" data-name="Ellipse 30" cx="2.5" cy="2.5" r="2.5" transform="translate(816 4104)" fill="#0ac962"/>
    <circle id="Ellipse_30-65" data-name="Ellipse 30" cx="2.5" cy="2.5" r="2.5" transform="translate(831 4104)" fill="#0ac962"/>
    <circle id="Ellipse_30-66" data-name="Ellipse 30" cx="2.5" cy="2.5" r="2.5" transform="translate(846 4104)" fill="#0ac962"/>
    <circle id="Ellipse_30-67" data-name="Ellipse 30" cx="2.5" cy="2.5" r="2.5" transform="translate(861 4104)" fill="#0ac962"/>
    <circle id="Ellipse_30-68" data-name="Ellipse 30" cx="2.5" cy="2.5" r="2.5" transform="translate(876 4104)" fill="#0ac962"/>
    <circle id="Ellipse_30-69" data-name="Ellipse 30" cx="2.5" cy="2.5" r="2.5" transform="translate(891 4104)" fill="#0ac962"/>
    <circle id="Ellipse_30-70" data-name="Ellipse 30" cx="2.5" cy="2.5" r="2.5" transform="translate(906 4104)" fill="#0ac962"/>
  </g>
</svg>
