<svg xmlns="http://www.w3.org/2000/svg" xmlns:xlink="http://www.w3.org/1999/xlink" width="36" height="36" viewBox="0 0 36 36">
  <defs>
    <clipPath id="clip-path">
      <rect id="Rectangle_183" data-name="Rectangle 183" width="36" height="36" transform="translate(927 3216)" fill="#fff" stroke="#707070" stroke-width="1"/>
    </clipPath>
  </defs>
  <g id="about-icon-2" transform="translate(-927 -3216)" clip-path="url(#clip-path)">
    <g id="trophy" transform="translate(927 3216)">
      <g id="Group_456" data-name="Group 456">
        <g id="Group_455" data-name="Group 455">
          <path id="Path_152" data-name="Path 152" d="M32.8,3.472a2.6,2.6,0,0,0-1.988-.919H28.295V1.766A1.768,1.768,0,0,0,26.529,0H9.471A1.768,1.768,0,0,0,7.706,1.766v.787H5.19A2.605,2.605,0,0,0,3.2,3.472,2.573,2.573,0,0,0,2.62,5.554a13.481,13.481,0,0,0,6.848,9.624,17.777,17.777,0,0,0,1.126,2.256,10.5,10.5,0,0,0,4.825,4.553,3.805,3.805,0,0,1-2.939,4.071l-.011,0a.833.833,0,0,0-.639.81v3.822H10.285a2.5,2.5,0,0,0-2.5,2.5v1.973A.833.833,0,0,0,8.618,36H27.461a.833.833,0,0,0,.833-.833V33.194a2.5,2.5,0,0,0-2.5-2.5H24.249V26.872a.833.833,0,0,0-.641-.81l-.01,0a3.8,3.8,0,0,1-2.936-4.106,10.558,10.558,0,0,0,4.745-4.519,17.785,17.785,0,0,0,1.126-2.257A13.481,13.481,0,0,0,33.38,5.554,2.573,2.573,0,0,0,32.8,3.472ZM4.265,5.287a.9.9,0,0,1,.207-.736.941.941,0,0,1,.718-.332H7.706V5.752a26.181,26.181,0,0,0,.888,6.861A11.8,11.8,0,0,1,4.265,5.287Zm21.53,27.074a.834.834,0,0,1,.833.833v1.14H9.452v-1.14a.834.834,0,0,1,.833-.833Zm-3.212-4.656v2.989H13.5V27.705Zm-6.9-1.666a5.516,5.516,0,0,0,.563-.735,5.42,5.42,0,0,0,.86-2.86,6.532,6.532,0,0,0,1.87-.011,5.485,5.485,0,0,0,1.431,3.606H15.682ZM26.628,5.752a21.528,21.528,0,0,1-2.654,10.832c-1.631,2.744-3.752,4.256-5.973,4.256s-4.343-1.511-5.974-4.256A21.527,21.527,0,0,1,9.372,5.752V1.766a.1.1,0,0,1,.1-.1H26.529a.1.1,0,0,1,.1.1Zm5.107-.465a11.8,11.8,0,0,1-4.329,7.326,26.183,26.183,0,0,0,.888-6.861V4.219H30.81a.941.941,0,0,1,.718.332A.9.9,0,0,1,31.735,5.287Z" fill="#fff"/>
        </g>
      </g>
      <g id="Group_458" data-name="Group 458">
        <g id="Group_457" data-name="Group 457">
          <path id="Path_153" data-name="Path 153" d="M23.058,8.554a.834.834,0,0,0-.673-.567l-2.514-.365L18.747,5.343a.833.833,0,0,0-1.494,0L16.129,7.622l-2.514.365a.833.833,0,0,0-.462,1.421l1.819,1.773-.43,2.5a.833.833,0,0,0,1.209.878L18,13.382l2.249,1.182a.833.833,0,0,0,1.209-.878l-.43-2.5,1.819-1.773A.833.833,0,0,0,23.058,8.554Zm-3.507,1.74a.833.833,0,0,0-.24.738L19.53,12.3l-1.142-.6a.834.834,0,0,0-.775,0l-1.142.6.218-1.272a.833.833,0,0,0-.24-.738l-.924-.9L16.8,9.208a.833.833,0,0,0,.627-.456L18,7.595l.571,1.157a.833.833,0,0,0,.627.456l1.277.186Z" fill="#fff"/>
        </g>
      </g>
    </g>
  </g>
</svg>
