<svg xmlns="http://www.w3.org/2000/svg" xmlns:xlink="http://www.w3.org/1999/xlink" width="36" height="36" viewBox="0 0 36 36">
  <defs>
    <clipPath id="clip-path">
      <rect id="Rectangle_181" data-name="Rectangle 181" width="36" height="36" transform="translate(924 3075)" fill="#fff" stroke="#707070" stroke-width="1"/>
    </clipPath>
  </defs>
  <g id="about-icon-1" transform="translate(-924 -3075)" clip-path="url(#clip-path)">
    <g id="speak" transform="translate(924 3078.896)">
      <path id="Path_131" data-name="Path 131" d="M35.3,11.216a.7.7,0,0,0-.7.7v2.506a2.611,2.611,0,0,1-2.608,2.608H27.978a.7.7,0,0,0-.5.206L22.622,22.1V17.736a.7.7,0,0,0-.7-.7H11.852a2.611,2.611,0,0,1-2.608-2.608V3.789a2.611,2.611,0,0,1,2.608-2.608H31.986a2.611,2.611,0,0,1,2.608,2.608V6.294a.7.7,0,1,0,1.406,0V3.789A4.019,4.019,0,0,0,31.986-.225H11.852A4.019,4.019,0,0,0,7.838,3.789v9.033H2.72A2.723,2.723,0,0,0,0,15.542v6.479a2.723,2.723,0,0,0,2.72,2.72H4.87l3.485,3.485a.7.7,0,0,0,1.2-.5V24.741h5.429a2.723,2.723,0,0,0,2.72-2.72V18.439h3.51V23.8a.7.7,0,0,0,1.2.5l5.853-5.853h3.717A4.019,4.019,0,0,0,36,14.425V11.919a.7.7,0,0,0-.7-.7Zm-19,10.805a1.315,1.315,0,0,1-1.314,1.314H8.853a.7.7,0,0,0-.7.7v1.994L5.659,23.541a.7.7,0,0,0-.5-.206H2.72a1.315,1.315,0,0,1-1.314-1.314V15.542A1.315,1.315,0,0,1,2.72,14.228H7.838v.2a4.019,4.019,0,0,0,4.014,4.014H16.3Zm0,0" fill="#fff"/>
      <path id="Path_132" data-name="Path 132" d="M28.774,4.383H15.063a.7.7,0,1,0,0,1.406H28.774a.7.7,0,0,0,0-1.406Zm0,0" fill="#fff"/>
      <path id="Path_133" data-name="Path 133" d="M29.477,8.883a.7.7,0,0,0-.7-.7H15.063a.7.7,0,1,0,0,1.406H28.774A.7.7,0,0,0,29.477,8.883Zm0,0" fill="#fff"/>
      <path id="Path_134" data-name="Path 134" d="M15.063,11.977a.7.7,0,1,0,0,1.406h7.91a.7.7,0,1,0,0-1.406Zm0,0" fill="#fff"/>
      <path id="Path_135" data-name="Path 135" d="M35.3,8.4a.7.7,0,1,0,.7.7A.7.7,0,0,0,35.3,8.4Zm0,0" fill="#fff"/>
    </g>
  </g>
</svg>
