<svg xmlns="http://www.w3.org/2000/svg" xmlns:xlink="http://www.w3.org/1999/xlink" width="80" height="80" viewBox="0 0 80 80">
  <defs>
    <clipPath id="clip-path">
      <rect id="Rectangle_183" data-name="Rectangle 183" width="80" height="80" transform="translate(927 3216)" fill="#0ac962" stroke="#707070" stroke-width="1"/>
    </clipPath>
  </defs>
  <g id="marketing-2" transform="translate(-927 -3216)" clip-path="url(#clip-path)">
    <g id="trophy" transform="translate(932.748 3216)">
      <g id="Group_456" data-name="Group 456" transform="translate(0)">
        <g id="Group_455" data-name="Group 455">
          <path id="Path_152" data-name="Path 152" d="M69.722,7.715a5.789,5.789,0,0,0-4.417-2.042h-5.59V3.924A3.929,3.929,0,0,0,55.792,0H17.886a3.928,3.928,0,0,0-3.924,3.924V5.672H8.373A5.789,5.789,0,0,0,3.956,7.715a5.719,5.719,0,0,0-1.3,4.629A29.957,29.957,0,0,0,17.879,33.73a39.5,39.5,0,0,0,2.5,5.014c2.969,5,6.66,8.449,10.723,10.119a8.457,8.457,0,0,1-6.53,9.047l-.024.007a1.851,1.851,0,0,0-1.42,1.8V68.21H19.694a5.561,5.561,0,0,0-5.555,5.555v4.384A1.851,1.851,0,0,0,15.991,80H57.864a1.851,1.851,0,0,0,1.852-1.852V73.764a5.561,5.561,0,0,0-5.555-5.555H50.725V59.716a1.851,1.851,0,0,0-1.425-1.8l-.023-.006a8.449,8.449,0,0,1-6.524-9.124c3.992-1.7,7.618-5.119,10.544-10.041a39.523,39.523,0,0,0,2.5-5.015A29.958,29.958,0,0,0,71.017,12.343,5.718,5.718,0,0,0,69.722,7.715ZM6.316,11.749a2,2,0,0,1,.461-1.635,2.092,2.092,0,0,1,1.6-.738h5.59v3.407a58.18,58.18,0,0,0,1.974,15.247A26.22,26.22,0,0,1,6.316,11.749ZM54.161,71.913a1.854,1.854,0,0,1,1.852,1.852V76.3H17.842V73.765a1.854,1.854,0,0,1,1.852-1.852ZM47.022,61.567V68.21H26.833V61.567Zm-15.334-3.7a12.258,12.258,0,0,0,1.25-1.634,12.045,12.045,0,0,0,1.911-6.355A14.516,14.516,0,0,0,39,49.85a12.189,12.189,0,0,0,3.18,8.014h-10.5ZM56.012,12.782c0,9.122-2.095,17.67-5.9,24.07-3.624,6.1-8.338,9.457-13.274,9.457s-9.652-3.358-13.276-9.457c-3.8-6.4-5.9-14.949-5.9-24.07V3.924a.221.221,0,0,1,.221-.221h37.9a.221.221,0,0,1,.221.221Zm11.35-1.033a26.221,26.221,0,0,1-9.62,16.28,58.184,58.184,0,0,0,1.974-15.247V9.375h5.59a2.092,2.092,0,0,1,1.6.738A2,2,0,0,1,67.362,11.749Z" transform="translate(-2.586)" fill="#0ac962"/>
        </g>
      </g>
      <g id="Group_458" data-name="Group 458" transform="translate(22.921 10.842)">
        <g id="Group_457" data-name="Group 457">
          <path id="Path_153" data-name="Path 153" d="M35.473,13.046a1.853,1.853,0,0,0-1.495-1.26l-5.587-.812-2.5-5.063a1.852,1.852,0,0,0-3.321,0l-2.5,5.063-5.587.812a1.852,1.852,0,0,0-1.026,3.158L17.5,18.885l-.955,5.565A1.852,1.852,0,0,0,19.235,26.4l5-2.627,5,2.627a1.852,1.852,0,0,0,2.686-1.952l-.955-5.565L35,14.944A1.851,1.851,0,0,0,35.473,13.046ZM27.68,16.913a1.851,1.851,0,0,0-.533,1.639l.485,2.827-2.538-1.335a1.853,1.853,0,0,0-1.723,0l-2.538,1.335.485-2.827a1.851,1.851,0,0,0-.533-1.639l-2.053-2,2.838-.413a1.851,1.851,0,0,0,1.394-1.013l1.269-2.572L25.5,13.486A1.852,1.852,0,0,0,26.9,14.5l2.838.413Z" transform="translate(-12.901 -4.879)" fill="#0ac962"/>
        </g>
      </g>
    </g>
  </g>
</svg>
