<svg xmlns="http://www.w3.org/2000/svg" xmlns:xlink="http://www.w3.org/1999/xlink" width="80" height="80" viewBox="0 0 80 80">
  <defs>
    <clipPath id="clip-path">
      <rect id="Rectangle_181" data-name="Rectangle 181" width="80" height="80" transform="translate(924 3075)" fill="#81b214" stroke="#707070" stroke-width="1"/>
    </clipPath>
  </defs>
  <g id="marketing-1" transform="translate(-924 -3075)" clip-path="url(#clip-path)">
    <g id="speak" transform="translate(924 3083.158)">
      <path id="Path_131" data-name="Path 131" d="M78.437,25.2a1.563,1.563,0,0,0-1.562,1.562v5.568a5.8,5.8,0,0,1-5.8,5.8H62.173a1.563,1.563,0,0,0-1.1.457l-10.8,10.8V39.689a1.562,1.562,0,0,0-1.562-1.562H26.337a5.8,5.8,0,0,1-5.8-5.8V8.695a5.8,5.8,0,0,1,5.8-5.795H71.08a5.8,5.8,0,0,1,5.8,5.795v5.568a1.562,1.562,0,1,0,3.125,0V8.695a8.93,8.93,0,0,0-8.92-8.92H26.337a8.93,8.93,0,0,0-8.92,8.92V28.769H6.044A6.051,6.051,0,0,0,0,34.813v14.4a6.051,6.051,0,0,0,6.044,6.044h4.779L18.567,63a1.563,1.563,0,0,0,2.668-1.1v-6.64H33.3a6.051,6.051,0,0,0,6.044-6.044v-7.96h7.8v11.9a1.562,1.562,0,0,0,2.667,1.1L62.82,41.252H71.08A8.93,8.93,0,0,0,80,32.331V26.763A1.563,1.563,0,0,0,78.437,25.2ZM36.221,49.211a2.922,2.922,0,0,1-2.92,2.919H19.673a1.563,1.563,0,0,0-1.562,1.563v4.431l-5.535-5.535a1.563,1.563,0,0,0-1.1-.458H6.045a2.922,2.922,0,0,1-2.919-2.919v-14.4a2.923,2.923,0,0,1,2.919-2.919H17.417v.437a8.93,8.93,0,0,0,8.92,8.92h9.883Zm0,0" transform="translate(0 0.225)" fill="#81b214"/>
      <path id="Path_132" data-name="Path 132" d="M46.391,4.383H15.923a1.562,1.562,0,1,0,0,3.125H46.391a1.562,1.562,0,1,0,0-3.125Zm0,0" transform="translate(17.551 5.857)" fill="#81b214"/>
      <path id="Path_133" data-name="Path 133" d="M47.954,9.742A1.563,1.563,0,0,0,46.391,8.18H15.923a1.562,1.562,0,1,0,0,3.125H46.391A1.562,1.562,0,0,0,47.954,9.742Zm0,0" transform="translate(17.551 10.498)" fill="#81b214"/>
      <path id="Path_134" data-name="Path 134" d="M15.923,11.977a1.562,1.562,0,1,0,0,3.125H33.5a1.562,1.562,0,1,0,0-3.125Zm0,0" transform="translate(17.551 15.138)" fill="#81b214"/>
      <path id="Path_135" data-name="Path 135" d="M36.156,8.4a1.562,1.562,0,1,0,1.563,1.563A1.566,1.566,0,0,0,36.156,8.4Zm0,0" transform="translate(42.281 10.771)" fill="#81b214"/>
    </g>
  </g>
</svg>
