<svg xmlns="http://www.w3.org/2000/svg" xmlns:xlink="http://www.w3.org/1999/xlink" width="80" height="80" viewBox="0 0 80 80">
  <defs>
    <clipPath id="clip-path">
      <rect id="Rectangle_177" data-name="Rectangle 177" width="80" height="80" transform="translate(720 2359)" fill="#ff5263" stroke="#707070" stroke-width="1"/>
    </clipPath>
  </defs>
  <g id="service-icon-4" transform="translate(-720 -2359)" clip-path="url(#clip-path)">
    <g id="rocket" transform="translate(720.001 2358.998)">
      <path id="Path_181" data-name="Path 181" d="M39.537,63.554a1.674,1.674,0,0,1-1.18-.487L16.934,41.644a1.669,1.669,0,0,1-.067-2.29L32.924,21.367C44.147,8.237,62.424-.26,78.361.01a1.664,1.664,0,0,1,1.627,1.627C80.358,17.584,71.764,35.851,58.6,47.1L40.644,63.131A1.651,1.651,0,0,1,39.537,63.554ZM20.4,40.4,39.6,59.6l16.81-15.007c12.02-10.273,20-26.647,20.25-41.251-14.6.243-30.974,8.227-41.227,20.22Z" fill="#ff5263"/>
      <path id="Path_182" data-name="Path 182" d="M45.921,75.754a1.547,1.547,0,0,1-.477-.073,1.649,1.649,0,0,1-1.18-1.287L41.977,58.437a1.667,1.667,0,1,1,3.3-.473l1.787,12.467a38.917,38.917,0,0,0,9.087-24.864,1.667,1.667,0,1,1,3.333,0,42.213,42.213,0,0,1-12.274,29.65,1.874,1.874,0,0,1-1.29.537Z" fill="#ff5263"/>
      <path id="Path_183" data-name="Path 183" d="M21.8,38.041a1.438,1.438,0,0,1-.237-.017L5.61,35.737A1.667,1.667,0,0,1,4.677,32.9a42.308,42.308,0,0,1,29.76-12.384,1.667,1.667,0,1,1,0,3.333,38.907,38.907,0,0,0-24.88,9.083l12.484,1.79a1.667,1.667,0,0,1-.237,3.317Z" fill="#ff5263"/>
      <path id="Path_184" data-name="Path 184" d="M57.111,31.22A8.33,8.33,0,1,1,63,28.784,8.308,8.308,0,0,1,57.111,31.22Zm0-13.327a5,5,0,1,0,3.537,1.46,4.989,4.989,0,0,0-3.537-1.46Zm4.713,9.713h.033Z" fill="#ff5263"/>
      <path id="Path_185" data-name="Path 185" d="M1.667,80a1.663,1.663,0,0,1-1.6-2.143c.547-1.823,5.443-17.937,9.01-21.5a10.3,10.3,0,0,1,14.57,14.57c-3.567,3.567-19.68,8.463-21.5,9.01a1.832,1.832,0,0,1-.48.067Zm14.7-23.33a6.958,6.958,0,0,0-4.93,2.037C9.513,60.634,6.313,69.238,4.2,75.8c6.56-2.113,15.167-5.313,17.09-7.237a6.965,6.965,0,0,0-4.923-11.894Z" fill="#ff5263"/>
    </g>
  </g>
</svg>
