<svg xmlns="http://www.w3.org/2000/svg" xmlns:xlink="http://www.w3.org/1999/xlink" width="80" height="80" viewBox="0 0 80 80">
  <defs>
    <clipPath id="clip-path">
      <rect id="Rectangle_177" data-name="Rectangle 177" width="80" height="80" transform="translate(520 1629)" fill="#5d50ff" stroke="#707070" stroke-width="1"/>
    </clipPath>
  </defs>
  <g id="service-icon-1" transform="translate(-520 -1629)" clip-path="url(#clip-path)">
    <g id="website" transform="translate(520 1629)">
      <g id="Group_532" data-name="Group 532">
        <g id="Group_531" data-name="Group 531">
          <path id="Path_166" data-name="Path 166" d="M74.665,1.333H5.335A5.341,5.341,0,0,0,0,6.668v44A1.334,1.334,0,0,0,1.333,52H78.667A1.334,1.334,0,0,0,80,50.667v-44A5.341,5.341,0,0,0,74.665,1.333Zm2.668,48H2.667V6.668A2.671,2.671,0,0,1,5.335,4H74.665a2.671,2.671,0,0,1,2.668,2.668Z" fill="#5d50ff"/>
        </g>
      </g>
      <g id="Group_534" data-name="Group 534">
        <g id="Group_533" data-name="Group 533">
          <path id="Path_167" data-name="Path 167" d="M78.667,49.333H1.333A1.334,1.334,0,0,0,0,50.667v6.665a5.341,5.341,0,0,0,5.335,5.335H74.665A5.341,5.341,0,0,0,80,57.332V50.667A1.334,1.334,0,0,0,78.667,49.333Zm-1.333,8A2.671,2.671,0,0,1,74.665,60H5.335a2.671,2.671,0,0,1-2.668-2.668V52H77.333v5.332Z" fill="#5d50ff"/>
        </g>
      </g>
      <g id="Group_536" data-name="Group 536">
        <g id="Group_535" data-name="Group 535">
          <path id="Path_168" data-name="Path 168" d="M44,54.667H36a1.333,1.333,0,1,0,0,2.667h8a1.333,1.333,0,1,0,0-2.667Z" fill="#5d50ff"/>
        </g>
      </g>
      <g id="Group_538" data-name="Group 538">
        <g id="Group_537" data-name="Group 537">
          <path id="Path_169" data-name="Path 169" d="M73.333,6.667H6.667A1.334,1.334,0,0,0,5.333,8V50.667A1.334,1.334,0,0,0,6.667,52H73.333a1.334,1.334,0,0,0,1.333-1.333V8A1.334,1.334,0,0,0,73.333,6.667ZM72,49.333H8v-40H72Z" fill="#5d50ff"/>
        </g>
      </g>
      <g id="Group_540" data-name="Group 540">
        <g id="Group_539" data-name="Group 539">
          <path id="Path_170" data-name="Path 170" d="M57.333,70.667H22.667a4,4,0,1,0,0,8H57.333a4,4,0,1,0,0-8Zm0,5.333H22.667a1.333,1.333,0,1,1,0-2.667H57.333a1.333,1.333,0,1,1,0,2.667Z" fill="#5d50ff"/>
        </g>
      </g>
      <g id="Group_542" data-name="Group 542">
        <g id="Group_541" data-name="Group 541">
          <path id="Path_171" data-name="Path 171" d="M54.667,70.667c-4.424,0-6.667-3.14-6.667-9.333A1.334,1.334,0,0,0,46.667,60H33.333A1.334,1.334,0,0,0,32,61.333c0,6.193-2.243,9.333-6.667,9.333a1.333,1.333,0,1,0,0,2.667H54.667a1.333,1.333,0,1,0,0-2.667Zm-22.839,0c1.641-1.819,2.608-4.527,2.8-8h10.74c.193,3.473,1.16,6.181,2.8,8Z" fill="#5d50ff"/>
        </g>
      </g>
      <g id="Group_544" data-name="Group 544">
        <g id="Group_543" data-name="Group 543">
          <path id="Path_172" data-name="Path 172" d="M63.712,40.619,60.493,37.4l1.791-1.791a1.333,1.333,0,0,0-.559-2.22l-13.333-4a1.334,1.334,0,0,0-1.66,1.66l4,13.333a1.333,1.333,0,0,0,2.22.56l1.885-1.887,3.219,3.22a1.333,1.333,0,0,0,1.885,0L63.712,42.5A1.332,1.332,0,0,0,63.712,40.619ZM59,43.448l-2.931-2.932a1.743,1.743,0,0,0-2.461,0l-.963.963L50,32.655,58.82,35.3l-1.032,1.032a1.511,1.511,0,0,0,0,2.135l3.093,3.093Z" fill="#5d50ff"/>
        </g>
      </g>
      <g id="Group_546" data-name="Group 546">
        <g id="Group_545" data-name="Group 545">
          <path id="Path_173" data-name="Path 173" d="M56,12H18.667a1.334,1.334,0,0,0-1.333,1.333V20a1.334,1.334,0,0,0,1.333,1.333H56A1.334,1.334,0,0,0,57.333,20V13.333A1.334,1.334,0,0,0,56,12Zm-1.333,6.667H20v-4H54.667Z" fill="#5d50ff"/>
        </g>
      </g>
      <g id="Group_548" data-name="Group 548">
        <g id="Group_547" data-name="Group 547">
          <path id="Path_174" data-name="Path 174" d="M34.667,26.667H24A1.334,1.334,0,0,0,22.667,28v5.333A1.334,1.334,0,0,0,24,34.667H34.667A1.334,1.334,0,0,0,36,33.333V28A1.334,1.334,0,0,0,34.667,26.667ZM33.333,32h-8V29.333h8Z" fill="#5d50ff"/>
        </g>
      </g>
      <g id="Group_550" data-name="Group 550">
        <g id="Group_549" data-name="Group 549">
          <path id="Path_175" data-name="Path 175" d="M56,12H18.667a1.334,1.334,0,0,0-1.333,1.333V38.667A1.334,1.334,0,0,0,18.667,40H50.408a1.334,1.334,0,0,0,1.277-1.717L50,32.655l5.62,1.687a1.334,1.334,0,0,0,1.716-1.277V13.333A1.334,1.334,0,0,0,56,12ZM54.667,31.272l-6.276-1.883a1.334,1.334,0,0,0-1.66,1.661l1.885,6.283H20V14.667H54.667Z" fill="#5d50ff"/>
        </g>
      </g>
    </g>
  </g>
</svg>
