<svg xmlns="http://www.w3.org/2000/svg" xmlns:xlink="http://www.w3.org/1999/xlink" width="80" height="80" viewBox="0 0 80 80">
  <defs>
    <clipPath id="clip-path">
      <rect id="Rectangle_177" data-name="Rectangle 177" width="80" height="80" transform="translate(1120 2359)" fill="#ff9c52" stroke="#707070" stroke-width="1"/>
    </clipPath>
  </defs>
  <g id="service-icon-5" transform="translate(-1120 -2359)" clip-path="url(#clip-path)">
    <path id="Icon_awesome-searchengin" data-name="Icon awesome-searchengin" d="M29.11,15.2l-8.868,3.721V3.709L13.024,28.821l7.218-3.193V42.822L29.11,15.2ZM18.131,2.443l-.172.62-2.006,6.981A14.188,14.188,0,0,0,6.862,23.279,13.845,13.845,0,0,0,17.867,37.2v7.073A20.884,20.884,0,0,1,0,23.292,21.071,21.071,0,0,1,18.131,2.443ZM59.224,61.455a4.037,4.037,0,0,1-3.774,1.386c-.713-.238-3.576-2.626-7.97-5.859S43.045,52.271,41.8,49.5a13.689,13.689,0,0,0-7.588-6.915l-1.28-1.94a21.558,21.558,0,0,1-10.728,3.787l.277-.871,2.1-6.532A14.2,14.2,0,0,0,35.26,23.279,13.862,13.862,0,0,0,22.592,9.146V2.271A20.926,20.926,0,0,1,38.4,35.221l1.927,1.267a13.661,13.661,0,0,0,6.915,7.574c2.758,1.24,4.249,1.28,7.5,5.674s5.635,7.245,5.872,7.957A4.023,4.023,0,0,1,59.224,61.455Zm-1.306-2.362a1.056,1.056,0,1,0-1.056,1.056A1.059,1.059,0,0,0,57.917,59.093Z" transform="translate(1129.234 2366.568)" fill="#ff9c52"/>
  </g>
</svg>
